<?xml version="1.0" encoding="utf-8"?>
<!-- Generator: Adobe Illustrator 24.1.2, SVG Export Plug-In . SVG Version: 6.00 Build 0)  -->
<svg version="1.1" id="Layer_1" xmlns="http://www.w3.org/2000/svg" xmlns:xlink="http://www.w3.org/1999/xlink" x="0px" y="0px"
	 viewBox="0 0 1440 1440" style="enable-background:new 0 0 1440 1440;" xml:space="preserve">
<style type="text/css">
	.st0{fill:none;}
	.st1{fill:#EF4723;}
	.st2{font-family:'Azedo-Bold';}
	.st3{font-size:233.0068px;}
	.st4{opacity:0.6;fill:#EF4723;}
	.st5{font-family:'Azedo-Light';}
	.st6{opacity:0.6;}
	.st7{fill:#EF4723;stroke:#EF4723;stroke-width:2.3301;stroke-miterlimit:10;}
</style>
<g>
	<path class="st0" d="M649.13,394.51v283.45c78.29,0,141.74-63.45,141.74-141.71C790.87,457.96,727.42,394.51,649.13,394.51z"/>
	<path class="st1" d="M649.13,677.97V394.51c78.29,0,141.74,63.45,141.74,141.74v-0.01h116.5
		c-0.01-142.62-115.62-258.23-258.24-258.23h-116.5v699.02h116.5V794.47c52.35,0,101.05-15.59,141.74-42.36V536.25
		C790.87,614.52,727.42,677.97,649.13,677.97z"/>
	<path class="st1" d="M790.87,752.11v224.91h116.5V536.25C907.37,626.51,861.04,705.95,790.87,752.11z"/>
	<text transform="matrix(1 0 0 1 168.2393 1276.6689)" class="st1 st2 st3">PTE</text>
	<text transform="matrix(1 0 0 1 549.4609 1276.6689)" class="st4 st5 st3">Intensive</text>
	<g class="st6">
		<g>
			<g>
				<g>
					<g>
						<path class="st7" d="M900.82,1041.8c-2.51-4.89-8.42-6.91-13.21-4.54c-4.85,2.26-6.95,8.16-4.69,13.16
							c2.25,5,8.22,7.13,13.32,4.75C901.27,1052.68,903.32,1046.68,900.82,1041.8z"/>
					</g>
					<g>
						<path class="st7" d="M927.35,1027.19c-1.56-2.62-4.02-4.37-6.72-5.1c-1.35-0.37-2.75-0.46-4.15-0.3
							c-1.41,0.15-2.8,0.57-4.09,1.29c-2.6,1.44-4.33,3.88-5.13,6.54c-0.79,2.67-0.58,5.69,0.85,8.38c1.43,2.69,3.82,4.55,6.57,5.36
							c2.75,0.82,5.8,0.49,8.53-1.03c1.36-0.76,2.51-1.76,3.41-2.9c0.89-1.15,1.53-2.48,1.9-3.86
							C929.24,1032.82,928.9,1029.81,927.35,1027.19z"/>
					</g>
					<g>
						<path class="st7" d="M955.64,1008.99c-3.91-5.57-11.38-6.94-16.9-3.38c-1.38,0.91-2.5,2.06-3.36,3.37
							c-0.87,1.3-1.49,2.73-1.82,4.25c-0.66,3.03-0.2,6.36,1.58,9.24c1.78,2.88,4.57,4.76,7.68,5.43c1.55,0.34,3.19,0.39,4.78,0.1
							c1.59-0.3,3.16-0.93,4.62-1.88C958.09,1022.32,959.52,1014.51,955.64,1008.99z"/>
					</g>
					<g>
						<path class="st7" d="M985.46,986.44c-2.39-2.91-5.74-4.59-9.17-4.99c-3.44-0.41-6.92,0.51-9.85,2.7
							c-2.91,2.21-4.57,5.48-5.07,8.87c-0.48,3.4,0.3,7.05,2.52,10.1c2.21,3.04,5.46,4.89,8.97,5.39c3.52,0.52,7.19-0.45,10.28-2.79
							c3.1-2.33,4.85-5.78,5.27-9.26C988.82,992.95,987.85,989.35,985.46,986.44z"/>
					</g>
					<g>
						<path class="st7" d="M1016.33,958.65c-2.93-2.98-6.79-4.51-10.61-4.61c-3.8-0.07-7.67,1.15-10.62,3.92
							c-2.93,2.79-4.6,6.41-4.77,10.26c-0.19,3.84,1.02,7.81,3.75,10.97c2.74,3.18,6.5,4.92,10.41,5.11
							c3.89,0.18,8.02-1.09,11.15-4.07c3.16-2.95,4.89-6.82,4.97-10.78C1020.7,965.53,1019.26,961.63,1016.33,958.65z"/>
					</g>
					<g>
						<path class="st7" d="M1047.6,924.72c-3.57-2.97-8.01-4.24-12.24-3.95c-4.21,0.32-8.33,2.1-11.3,5.44
							c-1.47,1.69-2.57,3.57-3.28,5.57c-0.7,2-1,4.13-0.9,6.26c0.21,4.28,1.9,8.5,5.25,11.73c3.33,3.22,7.73,4.82,12.06,4.6
							c2.17-0.1,4.35-0.62,6.39-1.57c2.05-0.94,3.96-2.31,5.54-4.12c3.2-3.6,4.69-8.1,4.36-12.48
							C1053.18,931.83,1051.17,927.69,1047.6,924.72z"/>
					</g>
					<g>
						<path class="st7" d="M1078.2,883.59c-4.32-2.85-9.32-3.68-13.97-2.87c-2.34,0.4-4.57,1.22-6.58,2.45
							c-2,1.23-3.77,2.87-5.25,4.86c-1.46,2-2.43,4.22-2.94,6.52c-0.53,2.29-0.64,4.65-0.29,6.99c0.69,4.66,3.11,9.2,7.17,12.39
							c4.06,3.19,9.02,4.4,13.83,3.69c2.4-0.36,4.77-1.17,6.92-2.47c2.13-1.31,4.06-3.07,5.64-5.24c1.6-2.16,2.63-4.56,3.17-7.02
							c0.55-2.45,0.6-4.94,0.2-7.32C1085.27,890.8,1082.5,886.43,1078.2,883.59z"/>
					</g>
					<g>
						<path class="st7" d="M1106.68,834.26c-5.15-2.56-10.8-2.8-15.79-1.28c-2.52,0.75-4.88,1.95-6.92,3.56
							c-1.02,0.81-1.96,1.72-2.81,2.73c-0.87,1-1.66,2.09-2.32,3.29c-1.35,2.39-2.08,4.97-2.38,7.55c-0.3,2.58-0.09,5.2,0.6,7.73
							c1.4,5.07,4.57,9.73,9.46,12.74c4.88,3.01,10.58,3.76,15.76,2.33c2.6-0.7,5.1-1.93,7.32-3.64c2.22-1.7,4.09-3.93,5.56-6.54
							c0.73-1.31,1.32-2.66,1.76-4.02c0.42-1.38,0.69-2.78,0.84-4.17c0.28-2.78,0.02-5.55-0.75-8.12
							C1115.44,841.24,1111.81,836.81,1106.68,834.26z"/>
					</g>
					<g>
						<path class="st7" d="M1130.96,775.83c-6.02-2.02-12.35-1.46-17.62,0.95c-5.23,2.44-9.62,6.63-11.77,12.29
							c-2.29,5.6-1.92,11.67,0.24,17.01c2.22,5.35,6.46,10.07,12.26,12.71c5.81,2.64,12.11,2.62,17.68,0.32
							c5.61-2.27,10.26-6.92,12.79-13.13c2.39-6.26,2.15-12.84-0.41-18.32C1141.62,782.17,1137.03,777.86,1130.96,775.83z"/>
					</g>
					<g>
						<path class="st7" d="M1148.24,707.69c-3.49-0.61-6.93-0.48-10.16,0.23c-3.26,0.71-6.32,2-9.02,3.75
							c-2.72,1.75-4.99,3.99-6.9,6.56c-1.9,2.58-3.26,5.54-3.99,8.8c-0.8,3.25-0.85,6.51-0.28,9.66c0.55,3.14,1.64,6.16,3.31,8.92
							c3.35,5.53,8.65,10.03,15.46,12.02c6.79,1.99,13.82,1.01,19.53-2.44c2.86-1.72,5.47-4.02,7.51-6.83
							c2.02-2.81,3.57-6.11,4.45-9.74c0.82-3.65,0.86-7.29,0.28-10.71c-0.56-3.41-1.93-6.64-3.73-9.44c-1.83-2.8-4.18-5.2-6.95-7.04
							C1154.94,709.59,1151.73,708.3,1148.24,707.69z"/>
					</g>
					<g>
						<path class="st7" d="M1155.12,629.91c-7.87-0.03-15.04,3.08-20.26,7.89c-2.61,2.41-4.85,5.25-6.4,8.41
							c-1.52,3.16-2.56,6.62-2.8,10.31c-0.13,1.84-0.01,3.66,0.22,5.43c0.22,1.77,0.63,3.49,1.21,5.16
							c1.16,3.33,2.98,6.44,5.23,9.17c4.57,5.45,11.28,9.48,19.09,10.48c7.81,1,15.25-1.31,20.99-6.11c2.9-2.39,5.27-5.4,7.01-8.86
							c0.88-1.73,1.6-3.57,2.15-5.5c0.55-1.93,0.85-3.95,0.99-6.03c0.27-4.17-0.26-8.19-1.6-11.84c-1.32-3.66-3.24-6.95-5.78-9.7
							C1170.08,633.21,1163,629.93,1155.12,629.91z"/>
					</g>
					<g>
						<path class="st7" d="M1147.55,543.49c-4.31,0.79-8.22,2.4-11.69,4.6c-3.48,2.2-6.48,4.98-8.86,8.13
							c-1.2,1.58-2.22,3.24-3.1,4.98c-0.91,1.75-1.64,3.56-2.19,5.43c-0.55,1.87-0.9,3.79-1.06,5.75c-0.2,1.97-0.2,3.97,0.03,5.99
							c0.22,2.03,0.71,3.97,1.29,5.85c0.59,1.88,1.37,3.67,2.33,5.37c0.95,1.7,2.1,3.31,3.34,4.81c1.23,1.5,2.62,2.9,4.14,4.17
							c3.03,2.54,6.59,4.58,10.46,5.95c3.84,1.37,8.04,2.07,12.41,1.87s8.5-1.27,12.22-3.1c3.69-1.83,6.94-4.42,9.61-7.6
							c1.33-1.59,2.52-3.33,3.54-5.19c1.01-1.86,1.8-3.84,2.43-5.91c0.62-2.07,1.05-4.24,1.28-6.47c0.23-2.23,0.15-4.52-0.1-6.84
							c-0.27-2.32-0.74-4.56-1.41-6.69c-0.72-2.13-1.63-4.14-2.7-6.03c-1.07-1.88-2.31-3.63-3.68-5.22
							c-1.39-1.59-2.96-3.02-4.61-4.27c-3.32-2.51-7.08-4.3-11.08-5.26C1156.14,542.83,1151.85,542.71,1147.55,543.49z"/>
					</g>
					<g>
						<path class="st7" d="M1120.42,451.05c-4.49,1.85-8.4,4.52-11.65,7.69c-3.24,3.18-5.82,6.86-7.75,10.83
							c-1.92,3.97-3,8.15-3.42,12.46c-0.19,2.15-0.16,4.3,0.1,6.45c0.27,2.15,0.67,4.32,1.37,6.45c1.43,4.25,3.56,8.06,6.38,11.31
							c2.87,3.24,6.19,6,10.08,8.08c3.89,2.08,8.14,3.55,12.63,4.21c4.5,0.66,9.23,0.53,13.95-0.61c4.72-1.14,8.99-3.19,12.64-5.99
							c3.66-2.8,6.7-6.34,8.88-10.39c2.17-4.05,3.69-8.66,4.08-13.47c0.43-4.82-0.03-9.9-1.69-14.86c-0.82-2.48-1.8-4.85-3.07-7.02
							c-1.26-2.17-2.7-4.18-4.29-6.01c-3.13-3.67-7.07-6.51-11.21-8.51c-4.14-2-8.69-3.08-13.29-3.2
							C1129.57,448.36,1124.91,449.2,1120.42,451.05z"/>
					</g>
					<g>
						<path class="st7" d="M1068.58,357.45c-8.74,6.28-14.24,15.5-16.31,24.93c-1.05,4.74-1.32,9.61-0.6,14.27
							c0.31,2.37,0.85,4.69,1.65,6.94c0.4,1.13,0.86,2.24,1.38,3.33c0.5,1.11,1.06,2.19,1.69,3.26c1.25,2.13,2.74,4.06,4.35,5.82
							c1.59,1.78,3.36,3.37,5.28,4.78c0.96,0.7,1.96,1.35,2.98,1.97c1.01,0.62,2.05,1.19,3.12,1.72c2.14,1.05,4.4,1.91,6.75,2.56
							c9.32,2.65,19.96,2.24,29.69-2.48c9.7-4.7,16.57-13,19.41-22.94c0.7-2.47,1.15-5.04,1.35-7.67c0.1-1.31,0.14-2.64,0.11-3.98
							c-0.04-1.33-0.16-2.66-0.34-4c-0.36-2.68-0.99-5.37-1.88-8.04c-0.92-2.65-2.16-5.24-3.64-7.76c-0.74-1.26-1.54-2.47-2.38-3.63
							c-0.87-1.14-1.78-2.23-2.73-3.26c-1.9-2.06-3.96-3.91-6.13-5.51c-4.44-3.14-9.28-5.35-14.32-6.46
							C1087.87,349.09,1077.37,351.13,1068.58,357.45z"/>
					</g>
					<g>
						<path class="st7" d="M987.65,270.42c-3.84,4.61-6.57,9.78-8.31,15.12c-1.74,5.35-2.45,10.81-2.32,16.22
							c0.08,2.69,0.39,5.35,0.94,7.92c0.55,2.57,1.27,5.14,2.27,7.55c2.02,4.81,4.82,9.34,8.71,13.15
							c7.66,7.7,17.8,11.64,28.58,12.01c10.71,0.36,22.11-2.88,31.39-10.52c9.25-7.61,14.47-18.37,14.89-29.89
							c0.41-11.45-4.04-23.61-13.31-32.92c-4.67-4.6-9.96-8.14-15.63-10.34c-2.82-1.11-5.66-1.97-8.57-2.46
							c-2.91-0.5-5.82-0.7-8.68-0.61c-5.71,0.14-11.35,1.58-16.43,4.07C996.08,262.21,991.49,265.81,987.65,270.42z"/>
					</g>
					<g>
						<path class="st7" d="M875.29,201.25c-2.65,6.12-3.94,12.48-4.14,18.7c-0.18,6.19,0.69,12.34,2.49,18.01
							c1.83,5.61,4.49,10.97,8.06,15.44c3.51,4.61,7.9,8.4,13.08,11.37c2.62,1.43,5.29,2.63,8.04,3.52c2.76,0.88,5.6,1.45,8.44,1.82
							c2.85,0.35,5.78,0.39,8.69,0.19c2.9-0.17,5.82-0.61,8.72-1.32c5.82-1.45,11.45-3.76,16.7-7.18
							c5.23-3.4,10.01-7.81,13.87-13.25c3.86-5.43,6.42-11.39,7.63-17.57c1.2-6.16,1.13-12.66-0.4-18.84
							c-0.75-3.11-1.83-6.18-3.22-9.17c-1.41-2.97-3.16-5.8-5.2-8.52c-2.03-2.74-4.41-5.25-7.06-7.56c-2.65-2.32-5.57-4.45-8.8-6.22
							c-6.39-3.65-13.27-5.7-19.99-6.47c-6.79-0.63-13.38-0.04-19.51,1.98c-6.11,1.96-11.64,5.12-16.32,9.41
							C881.71,189.85,877.94,195.13,875.29,201.25z"/>
					</g>
					<g>
						<path class="st7" d="M733.34,165.06c-0.67,7.37,0.18,14.53,2.12,21.15c1.94,6.65,4.97,12.84,8.79,18.15
							c7.67,10.79,18.34,18.43,31.11,21.12c3.19,0.71,6.4,0.98,9.58,1c3.17,0.04,6.32-0.27,9.44-0.91c6.2-1.12,12.29-3.6,17.93-6.93
							c2.82-1.69,5.55-3.67,8.12-5.85c2.56-2.17,4.98-4.59,7.21-7.24c4.44-5.3,8.1-11.54,10.45-18.56
							c2.35-7.02,3.15-14.18,2.43-21.16c-0.36-3.49-1.1-6.93-2.2-10.29c-1.11-3.34-2.6-6.53-4.42-9.61
							c-3.63-6.21-8.72-11.61-14.91-16.09c-3.11-2.16-6.5-4.07-10.12-5.69c-3.62-1.59-7.5-2.77-11.53-3.66
							c-16.22-3.41-32.1,0.32-43.68,8.61c-5.82,4.22-10.59,9.47-14.05,15.57C736.16,150.79,734.01,157.69,733.34,165.06z"/>
					</g>
					<g>
						<path class="st7" d="M571.29,178.63c2.12,7.96,5.72,15.07,10.25,21.29c2.27,3.12,4.77,5.99,7.45,8.6
							c2.68,2.62,5.52,4.92,8.51,7.06c2.99,2.11,6.1,3.93,9.29,5.42c3.21,1.56,6.51,2.81,9.86,3.7c3.36,0.89,6.8,1.57,10.26,1.78
							c3.47,0.21,7,0.22,10.55-0.3c14.18-1.88,26.5-9.39,35.92-20.55c2.34-2.78,4.49-5.83,6.4-9.07c1.91-3.19,3.59-6.6,4.97-10.18
							c2.77-7.17,4.4-15.03,4.37-23.25c-0.03-8.23-1.73-16.05-4.99-23.14c-1.63-3.54-3.64-6.91-6.02-10.05
							c-2.37-3.09-5.1-5.94-8.14-8.52c-1.52-1.29-3.12-2.51-4.8-3.66c-1.67-1.14-3.42-2.16-5.23-3.13
							c-3.62-1.89-7.52-3.57-11.61-4.71c-4.09-1.14-8.39-1.99-12.81-2.3c-4.42-0.28-8.98-0.24-13.58,0.39
							c-4.59,0.66-9.04,1.63-13.22,3.14c-4.18,1.51-8.15,3.3-11.8,5.52c-3.65,2.23-7,4.75-10.02,7.52c-3,2.84-5.66,5.92-7.94,9.17
							c-2.29,3.23-4.17,6.77-5.66,10.39c-1.49,3.63-2.57,7.38-3.23,11.21C568.78,162.64,569.18,170.69,571.29,178.63z"/>
					</g>
					<g>
						<path class="st7" d="M409.28,258.1c5.55,7.27,12.28,13.06,19.54,17.51c3.65,2.24,7.43,4.15,11.26,5.71
							c3.83,1.55,7.73,2.77,11.68,3.71c7.84,1.81,15.75,2.35,23.35,1.49c3.83-0.38,7.51-1.25,11.18-2.34
							c1.82-0.56,3.61-1.23,5.37-2.01c1.76-0.77,3.52-1.59,5.23-2.55c1.72-0.94,3.33-2.03,4.91-3.11c1.58-1.09,3.09-2.26,4.52-3.52
							c0.72-0.63,1.42-1.28,2.1-1.95c0.69-0.65,1.37-1.31,2.02-2c1.31-1.37,2.56-2.82,3.73-4.34c4.72-6.01,8.39-13.03,10.97-20.65
							c1.27-3.85,2.27-7.81,2.96-11.88c0.68-4.08,1.05-8.3,1.05-12.58c0.02-8.52-1.37-17.28-4.64-25.83
							c-3.27-8.53-8.14-16.03-14.36-22.09c-3.1-3.01-6.53-5.68-10.25-7.96c-3.72-2.29-7.73-4.2-11.94-5.6
							c-8.44-2.9-17.74-3.99-27.28-3.08c-2.38,0.24-4.77,0.6-7.17,1.08c-1.2,0.24-2.4,0.5-3.6,0.8c-1.19,0.32-2.38,0.67-3.57,1.04
							c-2.38,0.75-4.75,1.63-7.1,2.62c-2.36,0.98-4.65,2.18-6.93,3.44c-2.27,1.28-4.49,2.62-6.57,4.1
							c-2.08,1.49-4.06,3.05-5.95,4.68c-3.8,3.22-7.09,6.91-10,10.68c-5.77,7.64-9.72,16.13-11.68,24.83
							c-1.01,4.31-1.49,8.72-1.49,13.1c-0.01,4.37,0.46,8.68,1.4,12.9C399.92,242.76,403.74,250.84,409.28,258.1z"/>
					</g>
					<g>
						<path class="st7" d="M279.87,410.88c8.99,4.74,18.48,7.45,27.86,8.59c4.72,0.58,9.41,0.76,13.99,0.58
							c2.29-0.09,4.55-0.28,6.79-0.54c2.26-0.25,4.49-0.59,6.68-1.02c4.37-0.86,8.56-2.06,12.64-3.53c2.02-0.74,3.99-1.57,5.89-2.49
							c1.92-0.9,3.82-1.86,5.63-2.92c7.2-4.26,13.6-9.67,18.69-16.54c2.62-3.38,4.69-7.05,6.51-10.79c0.89-1.88,1.65-3.83,2.35-5.79
							c0.71-1.95,1.32-3.95,1.83-5.99c2.03-8.15,2.65-16.82,1.86-25.7c-0.43-4.47-1.11-8.89-2.24-13.37
							c-1.11-4.46-2.62-8.94-4.45-13.27c-3.7-8.69-8.97-17.07-16.03-24.37s-15.28-12.81-24.3-16.3c-4.53-1.76-9.18-2.95-13.99-3.63
							c-4.79-0.67-9.78-0.87-14.7-0.43c-9.91,0.82-19.98,3.86-29.34,9.13c-2.34,1.32-4.64,2.77-6.9,4.34
							c-2.24,1.59-4.4,3.33-6.52,5.17c-4.27,3.66-8.13,7.95-11.71,12.61c-7.02,9.44-11.85,19.8-14.25,30.3
							c-0.61,2.62-1.1,5.23-1.43,7.83c-0.31,2.62-0.48,5.23-0.53,7.81c-0.13,5.13,0.37,10.22,1.36,15.1
							c0.49,2.44,1.11,4.83,1.84,7.15c0.76,2.34,1.65,4.63,2.65,6.85c2,4.43,4.47,8.59,7.37,12.42
							C263.29,399.77,270.89,406.14,279.87,410.88z"/>
					</g>
					<g>
						<path class="st7" d="M226.32,626.35c11.29,0.02,22.07-2.22,31.9-5.91c9.78-3.71,18.83-8.86,26.49-14.94
							c3.92-3.04,7.43-6.32,10.65-9.79c1.63-1.74,3.16-3.52,4.59-5.36c0.71-0.92,1.4-1.85,2.06-2.79c0.68-0.94,1.35-1.89,1.98-2.85
							c1.26-1.92,2.41-3.89,3.44-5.91c1.06-2.01,2.05-4.07,2.89-6.17c0.42-1.05,0.81-2.12,1.17-3.19c0.36-1.07,0.74-2.15,1.06-3.25
							c0.65-2.19,1.16-4.43,1.54-6.72c0.91-4.56,1.11-9.13,1.04-13.65c-0.05-2.26-0.3-4.54-0.56-6.78
							c-0.27-2.25-0.66-4.49-1.19-6.73c-0.55-2.25-1.11-4.46-1.81-6.67c-0.7-2.21-1.53-4.42-2.46-6.61
							c-1.76-4.35-3.99-8.67-6.58-12.86c-2.53-4.18-5.46-8.25-8.77-12.16c-3.28-3.9-6.87-7.6-10.85-11.05
							c-3.97-3.45-8.29-6.64-12.94-9.46c-4.62-2.81-9.59-5.26-14.88-7.22c-5.29-1.96-10.66-3.34-16.06-4.11
							c-5.37-0.77-10.76-0.93-16.1-0.47c-5.33,0.45-10.67,1.51-15.81,3.18c-5.12,1.68-10.13,3.97-14.94,6.83
							c-4.75,2.88-9.25,6.34-13.49,10.32c-2.07,2.01-4.07,4.14-5.98,6.4c-1.91,2.26-3.77,4.64-5.42,7.15
							c-1.68,2.51-3.27,5.13-4.75,7.86c-1.49,2.73-2.75,5.58-3.96,8.51c-2.45,5.86-4.16,12.14-5.42,18.66
							c-0.56,3.27-0.95,6.53-1.2,9.77c-0.12,1.62-0.23,3.22-0.25,4.83c-0.02,1.6,0,3.2,0.05,4.78c0.11,3.17,0.33,6.29,0.75,9.35
							c0.45,3.07,1.03,6.08,1.73,9.01c0.35,1.47,0.74,2.92,1.16,4.35c0.45,1.43,0.92,2.84,1.43,4.23c1.01,2.78,2.15,5.47,3.4,8.07
							c2.53,5.2,5.63,10.01,9.05,14.35c7.01,8.7,15.55,15.51,25.32,20.07C204.31,624,215.04,626.33,226.32,626.35z"/>
					</g>
				</g>
			</g>
		</g>
	</g>
</g>
</svg>
